# AST/ASF file generated using VICON BodyLanguage
# -----------------------------------------------
:version 1.10
:name VICON
:units
  mass 1.0
  length 0.45
  angle deg
:documentation
   .ast/.asf automatically generated from VICON data using
   VICON BodyBuilder and BodyLanguage model FoxedUp or BRILLIANT.MOD
:root
   order TX TY TZ RX RY RZ
   axis XYZ
   position 0 0 0  
   orientation 0 0 0 
:bonedata
  begin
     id 1 
     name lhipjoint
     direction 0.541323 -0.757556 0.364798 
     length 2.47576 
     axis 0 0 0  XYZ
  end
  begin
     id 2 
     name lfemur
     direction 0.34202 -0.939693 0  
     length 7.46493  
     axis 0 0 20  XYZ
    dof rx ry rz
    limits (-160.0 20.0)
           (-70.0 70.0)
           (-60.0 70.0)
  end
  begin
     id 3 
     name ltibia
     direction 0.34202 -0.939693 0   
     length 7.73805   
     axis 0 0 20   XYZ
    dof rx
    limits (-10.0 170.0)
  end
  begin
     id 4 
     name lfoot
     direction 0.107174 -0.294458 0.949636   
     length 2.25864   
     axis -90 7.62852e-016 20   XYZ
    dof rx rz
    limits (-45.0 90.0)
           (-70.0 20.0)
  end
  begin
     id 5 
     name ltoes
     direction 1.53606e-011 -4.21934e-011 1   
     length 1.12451   
     axis -90 7.62852e-016 20   XYZ
    dof rx
    limits (-90.0 20.0)
  end
  begin
     id 6 
     name rhipjoint
     direction -0.524745 -0.766967 0.36933   
     length 2.44538  
     axis 0 0 0  XYZ 
  end
  begin
     id 7 
     name rfemur
     direction -0.34202 -0.939693 0   
     length 7.61604   
     axis 0 0 -20   XYZ
    dof rx ry rz
    limits (-160.0 20.0)
           (-70.0 70.0)
           (-70.0 60.0)
  end
  begin
     id 8 
     name rtibia
     direction -0.34202 -0.939693 0   
     length 7.61056   
     axis 0 0 -20   XYZ
    dof rx
    limits (-10.0 170.0)
 end
 begin
     id 9 
     name rfoot
     direction -0.12616 -0.346623 0.929482   
     length 2.46372  
     axis -90 -7.62852e-016 -20   XYZ
    dof rx rz
    limits (-45.0 90.0)
           (-20.0 70.0)
  end
  begin
     id 10 
     name rtoes
     direction -1.53531e-011 -4.22004e-011 1   
     length 1.21611   
     axis -90 -7.62852e-016 -20   XYZ
    dof rx
    limits (-90.0 20.0)
  end
  begin
     id 11 
     name lowerback
     direction -0.000778023 0.997293 -0.0735223   
     length 2.06139   
     axis 0 0 0   XYZ
    dof rx ry rz
    limits (-20.0 45.0)
           (-30.0 30.0)
           (-30.0 30.0)
  end
  begin
     id 12 
     name upperback
     direction 0.0222598 0.999722 -0.0078355   
     length 2.06383   
     axis 0 0 0   XYZ
    dof rx ry rz
    limits (-20.0 45.0)
           (-30.0 30.0)
           (-30.0 30.0)
  end
  begin
     id 13 
     name thorax
     direction 0.0219654 0.999405 0.0265994   
     length 2.07163   
     axis 0 0 0   XYZ
    dof rx ry rz
    limits (-20.0 45.0)
           (-30.0 30.0)
           (-30.0 30.0)
  end
  begin
     id 14 
     name lowerneck
     direction 0.0213282 0.988147 0.15202   
     length 1.75969   
     axis 0 0 0   XYZ
    dof rx ry rz
    limits (-20.0 45.0)
           (-30.0 30.0)
           (-30.0 30.0)
  end
  begin
     id 15 
     name upperneck
     direction -0.0546456 0.982624 -0.177379   
     length 1.79244   
     axis 0 0 0   XYZ
    dof rx ry rz
    limits (-20.0 45.0)
           (-30.0 30.0)
           (-30.0 30.0)
  end
  begin
     id 16
     name head
     direction -0.0199987 0.996855 -0.076686  
     length 1.80555  
     axis 0 0 0   XYZ
    dof rx ry rz
    limits (-20.0 45.0)
           (-30.0 30.0)
           (-30.0 30.0)
  end
  begin
     id 17 
     name lclavicle
     direction 0.929565 0.363219 -0.063096  
     length 3.55722  
     axis 0 0 0   XYZ
    dof ry rz
    limits (-20.0 10.0)
           (0.0 20.0)
  end
  begin
     id 18 
     name lhumerus
     direction 1 -4.48993e-011 -2.36203e-027   
     length 4.92785   
     axis 180 -30 -90   XYZ
    dof rx ry rz
    limits (-60.0 90.0)
           (-90.0 90.0)
           (-90.0 90.0)
  end
  begin
     id 19
     name lradius
     direction 1 -4.48947e-011 2.02997e-027   
     length 3.44052   
     axis 180 -30 -90   XYZ
    dof rx
    limits (-10.0 170.0)
  end
  begin
     id 20
     name lwrist
     direction 1 -4.48962e-011 1.45991e-027   
     length 1.72026   
     axis 1.49639e-024 90 90   XYZ
    dof ry
    limits (-180.0 0.0)
 end
  begin
     id 21 
     name lhand
     direction 1 -4.48984e-011 2.91906e-027   
     length 0.654326   
     axis -1.863e-015 90 90   XYZ
    dof rx rz
    limits (-90.0 90.0)
           (-45.0 45.0)
  end
  begin
     id 22 
     name lfingers
     direction 1 -4.48961e-011 5.83968e-027   
     length 0.527534   
     axis -3.72598e-015 90 90   XYZ
    dof rx
    limits (0.0 90.0)
  end
  begin
     id 23
     name lthumb
     direction 0.707107 -6.34963e-011 0.707107   
     length 0.757437   
     axis -90 45 -6.68868e-015   XYZ
    dof rx rz
    limits (-45.0 45.0)
           (-45.0 45.0)
  end
  begin
     id 24 
     name rclavicle
     direction -0.902944 0.422599 -0.0781198   
     length 3.54432  
     axis 0 0 0   XYZ 
    dof ry rz
    limits (-10.0 20.0)
           (-20.0 0.0)
  end
  begin
     id 25 
     name rhumerus
     direction -1 -4.48953e-011 -4.75835e-028  
     length 5.09181   
     axis 180 30 90   XYZ
    dof rx ry rz
    limits (-90.0 60.0)
           (-90.0 90.0)
           (-90.0 90.0)
  end
  begin
     id 26 
     name rradius
     direction -1 -4.48986e-011 -3.25889e-027   
     length 3.49865   
     axis 180 30 90   XYZ
    dof rx
    limits (-10.0 170.0)
  end
  begin
     id 27 
     name rwrist
     direction -1 -4.48963e-011 1.45989e-027   
     length 1.74933   
     axis 1.49639e-024 -90 -90   XYZ
    dof ry
    limits (-180.0 0.0)
  end
  begin
     id 28
     name rhand
     direction -1 -4.49003e-011 2.91844e-027   
     length 0.66641   
     axis -1.863e-015 -90 -90   XYZ
    dof rx rz
    limits (-90.0 90.0)
           (-45.0 45.0)
  end
  begin
     id 29
     name rfingers
     direction -1 -4.48973e-011 5.83886e-027   
     length 0.537277   
     axis -3.72598e-015 -90 -90   XYZ
    dof rx
    limits (0.0 90.0)
  end
  begin
     id 30
     name rthumb
     direction -0.707107 -6.34976e-011 0.707107   
     length 0.771425   
     axis -90 -45 6.68868e-015   XYZ
    dof rx rz
    limits (-45.0 45.0)
           (-45.0 45.0)
  end
:hierarchy
  begin
    root lhipjoint rhipjoint lowerback
    lhipjoint lfemur
    lfemur ltibia
    ltibia lfoot
    lfoot ltoes
    rhipjoint rfemur
    rfemur rtibia
    rtibia rfoot
    rfoot rtoes
    lowerback upperback
    upperback thorax
    thorax lowerneck lclavicle rclavicle
    lowerneck upperneck
    upperneck head
    lclavicle lhumerus
    lhumerus lradius
    lradius lwrist
    lwrist lhand lthumb
    lhand lfingers
    rclavicle rhumerus
    rhumerus rradius
    rradius rwrist
    rwrist rhand rthumb
    rhand rfingers
  end

#!OML:ASF H:\LiuWeirdWalks\Patient Classification 1\Patient 1\Session 1\male.ASF
:FULLY-SPECIFIED
:DEGREES
1
root -0.480321 17.9609 -30.8004 1.44881 34.849 -0.552207
lowerback 3.55617 6.55209 2.91881
upperback 0.132795 8.94007 3.39805
thorax -1.94209 4.45882 1.4108
lowerneck -9.08995 19.2205 16.3542
upperneck 22.2893 27.102 -9.78782
head 12.4327 12.8762 -1.62389
rclavicle 1.81888e-014 6.20208e-014
rhumerus -45.9905 -14.4426 -55.8878
rradius 41.2501
rwrist -13.2782
rhand -23.2958 -2.69155
rfingers 7.12502
rthumb 3.15746 -32.6479
lclavicle 1.81888e-014 6.20208e-014
lhumerus -26.3317 9.44603 87.15
lradius 22.5077
lwrist 3.36743
lhand -14.489 -6.14086
lfingers 7.12502
lthumb 11.6576 23.5148
rfemur -1.60803 -12.0894 21.2941
rtibia 26.1513
rfoot -17.5131 -37.0988
rtoes 0.661927
lfemur -10.2164 -10.8486 -15.2564
ltibia 25.8007
lfoot -11.8237 2.72531
ltoes -10.3414
2
root -0.477504 17.9605 -30.8047 1.48044 34.8059 -0.477141
lowerback 3.57045 6.58799 2.93613
upperback 0.174849 8.98767 3.41547
thorax -1.90721 4.48304 1.41826
lowerneck -7.83489 19.2158 10.4581
upperneck 22.6969 27.1619 -5.82987
head 10.7994 13.0167 0.0315964
rclavicle -3.72721e-015 -2.38542e-014
rhumerus -45.7373 -14.4298 -56.1616
rradius 41.3005
rwrist -13.1693
rhand -23.3865 -2.39841
rfingers 7.12502
rthumb 3.06986 -32.3561
lclavicle -3.72721e-015 -2.38542e-014
lhumerus -26.2379 9.67913 87.1589
lradius 22.2481
lwrist 3.10258
lhand -14.8632 -6.31919
lfingers 7.12502
lthumb 11.2967 23.3566
rfemur -1.62766 -12.0999 21.1963
rtibia 26.1998
rfoot -17.4937 -37.0431
rtoes 0.714838
lfemur -10.1881 -10.932 -15.3554
ltibia 25.7721
lfoot -11.7829 2.82017
ltoes -10.3925
3
root -0.47416 17.9587 -30.8028 1.48002 34.8031 -0.427827
lowerback 3.5734 6.61228 2.94059
upperback 0.196858 9.0199 3.43628
thorax -1.88909 4.49957 1.4366
lowerneck -8.28833 19.2424 10.0605
upperneck 23.0009 27.2273 -5.66047
head 10.9124 13.007 0.195569
rclavicle -1.31745e-013 -5.40694e-014
rhumerus -45.6138 -14.4895 -56.3915
rradius 41.4045
rwrist -12.8632
rhand -23.512 -1.88943
rfingers 7.12502
rthumb 2.94866 -31.8488
lclavicle -1.31745e-013 -5.40694e-014
lhumerus -26.1652 10.2839 86.9862
lradius 21.8411
lwrist 2.16318
lhand -14.703 -7.03675
lfingers 7.12502
lthumb 11.4512 22.6305
rfemur -1.56882 -12.1648 21.1184
rtibia 26.1887
rfoot -17.5068 -36.9683
rtoes 0.668349
lfemur -10.1308 -10.9912 -15.4261
ltibia 25.7684
lfoot -11.806 2.90961
ltoes -10.4148
4
root -0.478958 17.9603 -30.8047 1.46458 34.8601 -0.503449
lowerback 3.61603 6.60726 3.00348
upperback 0.14589 9.02177 3.46916
thorax -1.96124 4.49915 1.42707
lowerneck -8.32248 19.2481 10.3906
upperneck 23.0359 27.2235 -5.79944
head 11.0037 13.0081 0.130595
rclavicle 3.13086e-014 1.11319e-014
rhumerus -45.523 -14.4395 -56.6472
rradius 41.4755
rwrist -12.8013
rhand -23.7644 -2.0157
rfingers 7.12502
rthumb 2.70485 -31.9783
lclavicle 3.13086e-014 1.11319e-014
lhumerus -26.1128 10.8369 86.7993
lradius 21.4952
lwrist 1.40323
lhand -15.7097 -6.25829
lfingers 7.12502
lthumb 10.4802 23.4605
rfemur -1.61781 -12.0601 21.2466
rtibia 26.186
rfoot -17.58 -37.1142
rtoes 0.757693
lfemur -10.1953 -10.9952 -15.327
ltibia 25.7619
lfoot -11.787 2.83623
ltoes -10.3424
5
root -0.480078 17.9603 -30.8061 1.4677 34.8891 -0.507602
lowerback 3.66028 6.65627 3.06434
upperback 0.111209 9.09288 3.44776
thorax -2.00936 4.53289 1.36167
lowerneck -8.25045 19.2444 10.0218
upperneck 23.0873 27.2201 -5.53299
head 10.9106 13.0149 0.23609
rclavicle -7.70291e-015 4.77083e-015
rhumerus -45.4489 -14.5564 -56.8586
rradius 41.4786
rwrist -12.6537
rhand -23.9451 -1.89318
rfingers 7.12502
rthumb 2.53041 -31.8579
lclavicle -7.70291e-015 4.77083e-015
lhumerus -26.0448 11.2253 86.6162
lradius 21.1382
lwrist 0.621105
lhand -16.2618 -6.12816
lfingers 7.12502
lthumb 9.94757 23.6168
rfemur -1.62178 -12.0391 21.2651
rtibia 26.1724
rfoot -17.6066 -37.1533
rtoes 0.799391
lfemur -10.2137 -11.0239 -15.3191
ltibia 25.7607
lfoot -11.7826 2.83115
ltoes -10.3316
6
root -0.48167 17.9604 -30.8079 1.47555 34.9259 -0.520117
lowerback 3.69972 6.69474 3.12263
upperback 0.0749106 9.1501 3.43615
thorax -2.05822 4.55979 1.30859
lowerneck -8.20101 19.2447 10.0266
upperneck 22.9914 27.2117 -5.54276
head 10.8675 13.0163 0.220341
rclavicle -6.93758e-014 -6.36111e-015
rhumerus -45.3811 -14.6673 -57.0517
rradius 41.4717
rwrist -12.5146
rhand -24.1201 -1.80671
rfingers 7.12502
rthumb 2.36141 -31.7734
lclavicle -6.93758e-014 -6.36111e-015
lhumerus -25.9754 11.7008 86.4094
lradius 20.7784
lwrist -0.198627
lhand -16.8405 -5.9993
lfingers 7.12502
lthumb 9.38925 23.7716
rfemur -1.63534 -12.0185 21.2961
rtibia 26.1525
rfoot -17.6272 -37.1999
rtoes 0.840052
lfemur -10.2492 -11.0393 -15.2983
ltibia 25.7641
lfoot -11.7796 2.80648
ltoes -10.3204
7
root -0.483365 17.9608 -30.8106 1.49039 34.9624 -0.536841
lowerback 3.73485 6.73369 3.18345
upperback 0.0373894 9.20805 3.42638
thorax -2.10575 4.58701 1.25643
lowerneck -8.08783 19.2473 10.0423
upperneck 22.8016 27.2039 -5.58437
head 10.785 13.0215 0.181989
rclavicle 4.61677e-014 5.56597e-014
rhumerus -45.3141 -14.7856 -57.223
rradius 41.43
rwrist -12.4012
rhand -24.2875 -1.75814
rfingers 7.12502
rthumb 2.19967 -31.7266
lclavicle 4.61677e-014 5.56597e-014
lhumerus -25.9 12.2099 86.193
lradius 20.4211
lwrist -0.990819
lhand -17.4574 -5.88226
lfingers 7.12502
lthumb 8.79401 23.9145
rfemur -1.66678 -12.0002 21.332
rtibia 26.1406
rfoot -17.6381 -37.2454
rtoes 0.874265
lfemur -10.2974 -11.0465 -15.2713
ltibia 25.7652
lfoot -11.771 2.7738
ltoes -10.3134
8
root -0.484705 17.9611 -30.8137 1.50664 34.9964 -0.557548
lowerback 3.75831 6.75789 3.23912
upperback 0.0100293 9.24567 3.4344
thorax -2.13989 4.60457 1.22815
lowerneck -7.96446 19.2597 10.0398
upperneck 22.5984 27.2191 -5.65125
head 10.6993 13.0345 0.140169
rclavicle 3.38431e-014 -4.6118e-014
rhumerus -45.2321 -14.878 -57.3798
rradius 41.3718
rwrist -12.2884
rhand -24.4604 -1.70439
rfingers 7.12502
rthumb 2.03271 -31.6744
lclavicle 3.38431e-014 -4.6118e-014
lhumerus -25.823 12.8234 85.9609
lradius 20.0645
lwrist -1.74613
lhand -18.0612 -5.85517
lfingers 7.12502
lthumb 8.21123 23.9653
rfemur -1.7013 -11.9905 21.3675
rtibia 26.124
rfoot -17.6365 -37.2808
rtoes 0.898618
lfemur -10.3514 -11.047 -15.2416
ltibia 25.7697
lfoot -11.7641 2.73856
ltoes -10.3111
9
root -0.485611 17.9617 -30.8173 1.52909 35.0317 -0.575975
lowerback 3.76492 6.75892 3.28101
upperback -0.0063337 9.25118 3.46405
thorax -2.15894 4.60683 1.23351
lowerneck -7.84202 19.2904 9.97448
upperneck 22.3925 27.2691 -5.71439
head 10.606 13.06 0.111165
rclavicle 7.33018e-014 7.95139e-015
rhumerus -45.1324 -14.9154 -57.5327
rradius 41.306
rwrist -12.1701
rhand -24.6684 -1.69017
rfingers 7.12502
rthumb 1.8318 -31.662
lclavicle 7.33018e-014 7.95139e-015
lhumerus -25.7498 13.5267 85.7288
lradius 19.7228
lwrist -2.35341
lhand -18.6834 -5.84939
lfingers 7.12502
lthumb 7.61071 23.9937
rfemur -1.73905 -11.9939 21.3968
rtibia 26.1024
rfoot -17.6237 -37.3053
rtoes 0.915332
lfemur -10.4124 -11.0401 -15.2143
ltibia 25.7757
lfoot -11.7587 2.69438
ltoes -10.3017
10
root -0.486313 17.9624 -30.8209 1.54665 35.0696 -0.602099
lowerback 3.76136 6.74482 3.31533
upperback -0.0161939 9.236 3.51144
thorax -2.16971 4.59926 1.26357
lowerneck -7.74946 19.3254 9.86708
upperneck 22.246 27.3339 -5.75856
head 10.532 13.0887 0.100658
rclavicle -1.02449e-013 -2.8625e-014
rhumerus -45.0283 -14.9242 -57.6721
rradius 41.226
rwrist -12.0186
rhand -24.9145 -1.71566
rfingers 7.12502
rthumb 1.59414 -31.6895
lclavicle -1.02449e-013 -2.8625e-014
lhumerus -25.6853 14.2823 85.4956
lradius 19.3972
lwrist -2.80971
lhand -19.3299 -5.82953
lfingers 7.12502
lthumb 6.98669 24.0352
rfemur -1.77204 -11.9988 21.4319
rtibia 26.0726
rfoot -17.6131 -37.3292
rtoes 0.933971
lfemur -10.4738 -11.0319 -15.1799
ltibia 25.7834
lfoot -11.7591 2.64477
ltoes -10.2885
11
root -0.486295 17.9632 -30.8247 1.5746 35.1135 -0.614562
lowerback 3.75035 6.72448 3.34261
upperback -0.0264236 9.21167 3.55495
thorax -2.17712 4.58723 1.29482
lowerneck -7.67114 19.3596 9.75533
upperneck 22.12 27.3983 -5.79658
head 10.4667 13.1163 0.0949123
rclavicle 1.29483e-013 1.11319e-014
rhumerus -44.9359 -14.9334 -57.7967
rradius 41.1201
rwrist -11.8073
rhand -25.2099 -1.78461
rfingers 7.12502
rthumb 1.30884 -31.7603
lclavicle 1.29483e-013 1.11319e-014
lhumerus -25.6346 15.0033 85.2656
lradius 19.1059
lwrist -3.06981
lhand -19.9864 -5.75476
lfingers 7.12502
lthumb 6.35298 24.13
rfemur -1.8024 -12.0247 21.4478
rtibia 26.0363
rfoot -17.6007 -37.3379
rtoes 0.950476
lfemur -10.5369 -11.025 -15.1602
ltibia 25.7897
lfoot -11.7617 2.58799
ltoes -10.2694
12
root -0.485983 17.964 -30.8281 1.59627 35.1633 -0.63294
lowerback 3.73276 6.68981 3.36612
upperback -0.0304091 9.16783 3.61052
thorax -2.17691 4.56583 1.34251
lowerneck -7.62041 19.4039 9.60233
upperneck 22.0186 27.4815 -5.82253
head 10.4088 13.1493 0.103899
rclavicle 3.54085e-014 0
rhumerus -44.8559 -14.923 -57.9092
rradius 41.0123
rwrist -11.5287
rhand -25.5502 -1.8763
rfingers 7.12502
rthumb 0.980143 -31.8538
lclavicle 3.54085e-014 0
lhumerus -25.6001 15.7623 85.0216
lradius 18.8415
lwrist -3.23427
lhand -20.5782 -5.72473
lfingers 7.12502
lthumb 5.78159 24.1764
rfemur -1.82392 -12.053 21.4682
rtibia 25.994
rfoot -17.5982 -37.3483
rtoes 0.978737
lfemur -10.5951 -11.0171 -15.1353
ltibia 25.7935
lfoot -11.769 2.52248
ltoes -10.2455
13
root -0.485397 17.9647 -30.8314 1.6261 35.2223 -0.639659
lowerback 3.72835 6.68869 3.41038
upperback -0.0533086 9.16955 3.61874
thorax -2.19267 4.56593 1.32623
lowerneck -7.61593 19.4191 9.49108
upperneck 21.9336 27.5052 -5.81465
head 10.361 13.1578 0.114574
rclavicle 3.10601e-014 2.22639e-014
rhumerus -44.8291 -15.0273 -57.9853
rradius 40.8404
rwrist -11.211
rhand -25.9383 -1.96527
rfingers 7.12502
rthumb 0.605384 -31.9442
lclavicle 3.10601e-014 2.22639e-014
lhumerus -25.5654 16.3328 84.7682
lradius 18.6062
lwrist -3.29428
lhand -21.1176 -5.68606
lfingers 7.12502
lthumb 5.26082 24.2286
rfemur -1.84225 -12.0888 21.4768
rtibia 25.9476
rfoot -17.6103 -37.3564
rtoes 1.01998
lfemur -10.6529 -11.0146 -15.1211
ltibia 25.7924
lfoot -11.7777 2.45177
ltoes -10.2109
14
root -0.484817 17.9654 -30.8347 1.65862 35.2881 -0.64864
lowerback 3.72109 6.68109 3.45654
upperback -0.0747197 9.16252 3.62821
thorax -2.20519 4.56171 1.31111
lowerneck -7.68123 19.4372 9.35051
upperneck 21.9147 27.533 -5.77351
head 10.3403 13.1641 0.149568
rclavicle -1.91082e-014 4.77083e-015
rhumerus -44.8132 -15.1393 -58.0437
rradius 40.6594
rwrist -10.8642
rhand -26.3611 -2.04187
rfingers 7.12502
rthumb 0.196997 -32.0215
lclavicle -1.91082e-014 4.77083e-015
lhumerus -25.5401 16.9157 84.4999
lradius 18.4028
lwrist -3.34833
lhand -21.5829 -5.66809
lfingers 7.12502
lthumb 4.81153 24.2573
rfemur -1.8605 -12.1229 21.4902
rtibia 25.8962
rfoot -17.6406 -37.3684
rtoes 1.08069
lfemur -10.7151 -11.0031 -15.1024
ltibia 25.787
lfoot -11.7883 2.36424
ltoes -10.1647
